Input File     : '../looper_1min_overdub.wav'
Channels       : 2
Sample Rate    : 48000
Precision      : 24-bit
Duration       : 00:01:01.12 = 2933717 samples ~ 4583.93 CDDA sectors
File Size      : 17.6M
Bit Rate       : 2.30M
Sample Encoding: 24-bit Signed Integer PCM

65s long, with 124 indexes. Therefore 1 index is ~0.5s.

Each audio block is 4092 bytes (48KHz, 24bit, 2 ch) = 683 samples = 0.014229167s

Therefore ~35 blocks per index.

---
Base Section
Count:  124
Unique values:  124
Highest value:  0x7a7

Overdub Section
Count:  124
Unique values:  124
Highest value:  0x7a7

Total
Unique values:  131

Base               : Overdub
3 	00000000: 00 00 6C 08 F1 03 00 96  00                       ..l......

0x021B -> 0x00021B
0x021C -> 0x00021C
0x021D -> 0x00021D
0x021E -> 0x00021E
0x021F -> 0x00021F
0x025D -> 0x00025D
0x025F -> 0x00025F
0x0260 -> 0x000260
0x0261 -> 0x000261
0x0262 -> 0x000262
0x0263 -> 0x000263
214 	00000000: 00 40 79 08 F1 03 00 49  00                       .@y....I.

215 	00000000: 00 E0 81 09 F1 03 00 A0  00                       .........

0x0226 -> 0x000226
0x0227 -> 0x000227
0x0228 -> 0x000228
0x0229 -> 0x000229
0x022A -> 0x00022A
283 	00000000: 00 F0 8F 09 F1 03 00 82  00                       .........

284 	00000000: 00 00 98 08 F1 03 00 6A  00                       .......j.

0x0264 -> 0x000264
0x0266 -> 0x000266
0x0267 -> 0x000267
0x0268 -> 0x000268
0x0269 -> 0x000269
0x026A -> 0x00026A
347 	00000000: 00 F0 9B 08 F1 03 00 77  00                       .......w.

348 	00000000: 00 30 A6 08 F1 03 00 2C  00                       .0.....,.

0x0231 -> 0x000231
0x0232 -> 0x000232
0x0233 -> 0x000233
0x0234 -> 0x000234
0x0235 -> 0x000235
0x0236 -> 0x000236
0x0237 -> 0x000237
0x0238 -> 0x000238
0x0239 -> 0x000239
414 	00000000: 00 50 AA 08 F1 03 00 08  00                       .P.......

415 	00000000: 00 80 9B 09 F1 03 00 E6  00                       .........

0x026B -> 0x00026B
0x026D -> 0x00026D
0x026E -> 0x00026E
0x026F -> 0x00026F
0x0270 -> 0x000270
0x0271 -> 0x000271
0x0272 -> 0x000272
0x0273 -> 0x000273
0x0274 -> 0x000274
0x0275 -> 0x000275
0x0276 -> 0x000276
0x0277 -> 0x000277
480 	00000000: 00 90 9F 09 F1 03 00 D2  00                       .........

481 	00000000: 00 40 A9 09 F1 03 00 18  00                       .@.......

0x0246 -> 0x000246
0x0247 -> 0x000247
0x0248 -> 0x000248
0x0249 -> 0x000249
0x024A -> 0x00024A
0x024B -> 0x00024B
0x024C -> 0x00024C
0x024D -> 0x00024D
0x024E -> 0x00024E
0x024F -> 0x00024F

0x0250 -> 0x000250 : 0x0278 -> 0x000278
0x0251 -> 0x000251 : 0x027A -> 0x00027A
0x0252 -> 0x000252 : 0x027B -> 0x00027B
0x0253 -> 0x000253 : 0x027C -> 0x00027C
0x0254 -> 0x000254 : 0x027D -> 0x00027D
0x0255 -> 0x000255 : 0x027E -> 0x00027E
0x0256 -> 0x000256 : 0x027F -> 0x00027F

0x0257 -> 0x000257
0x0258 -> 0x000258
0x0259 -> 0x000259
0x025A -> 0x00025A
0x025B -> 0x00025B
0x025C -> 0x00025C
524 	00000000: 00 F0 AB 09 F1 03 00 66  00                       .......f.

525 	00000000: 00 00 C4 08 F1 03 00 3E  00                       .......>.

0x076E -> 0x00076E
0x076F -> 0x00076F
0x0770 -> 0x000770
0x0771 -> 0x000771
0x0772 -> 0x000772
0x0773 -> 0x000773
0x0774 -> 0x000774
0x0775 -> 0x000775
0x0776 -> 0x000776
0x0777 -> 0x000777
0x0778 -> 0x000778
0x0779 -> 0x000779
0x077A -> 0x00077A
0x077B -> 0x00077B
0x077C -> 0x00077C
0x077D -> 0x00077D
0x077E -> 0x00077E
0x077F -> 0x00077F
0x0780 -> 0x000780
0x0781 -> 0x000781
0x0782 -> 0x000782
0x0783 -> 0x000783
0x0784 -> 0x000784
0x0785 -> 0x000785
0x0786 -> 0x000786
0x0787 -> 0x000787
0x0788 -> 0x000788
0x0789 -> 0x000789
0x078A -> 0x00078A
0x078B -> 0x00078B
0x078C -> 0x00078C
0x078D -> 0x00078D
0x078E -> 0x00078E
0x078F -> 0x00078F
0x0790 -> 0x000790
0x0791 -> 0x000791
0x0792 -> 0x000792
0x0793 -> 0x000793
0x0794 -> 0x000794
0x0795 -> 0x000795
0x0796 -> 0x000796
0x0797 -> 0x000797
0x0798 -> 0x000798
0x0799 -> 0x000799
0x079A -> 0x00079A
0x079B -> 0x00079B
0x079C -> 0x00079C
0x079D -> 0x00079D
0x079E -> 0x00079E
0x079F -> 0x00079F
0x07A0 -> 0x0007A0
0x07A1 -> 0x0007A1
0x07A2 -> 0x0007A2
0x07A3 -> 0x0007A3
0x07A4 -> 0x0007A4
0x07A5 -> 0x0007A5
0x07A6 -> 0x0007A6
0x07A7 -> 0x0007A7
